<?xml version="1.0" encoding="UTF-8"?><svg fill="none" height="785" viewBox="0 0 1920 785" width="1920" xmlns="http://www.w3.org/2000/svg" xmlns:xlink="http://www.w3.org/1999/xlink"><linearGradient id="a"><stop offset="0"/><stop offset=".05" stop-color="#010107"/><stop offset=".12" stop-color="#05041a"/><stop offset=".2" stop-color="#0d093a"/><stop offset=".22" stop-color="#0f0b43"/><stop offset=".34" stop-color="#036b35"/><stop offset=".44" stop-color="#47ee1d"/><stop offset=".55" stop-color="#00a54f"/><stop offset=".7" stop-color="#0147ba"/><stop offset=".85" stop-color="#0e8bd9"/><stop offset="1" stop-color="#0ae4fe"/></linearGradient><linearGradient id="b" gradientUnits="userSpaceOnUse" x1="-641" x2="1976.18" xlink:href="#a" y1="392.214" y2="392.214"/><linearGradient id="c" gradientUnits="userSpaceOnUse" x1="-633.844" x2="1999.82" xlink:href="#a" y1="392.075" y2="392.075"/><linearGradient id="d" gradientUnits="userSpaceOnUse" x1="-626.609" x2="2023.54" xlink:href="#a" y1="391.984" y2="391.984"/><linearGradient id="e" gradientUnits="userSpaceOnUse" x1="-619.383" x2="2047.34" xlink:href="#a" y1="391.868" y2="391.868"/><linearGradient id="f" gradientUnits="userSpaceOnUse" x1="-612.227" x2="2071.21" xlink:href="#a" y1="391.823" y2="391.823"/><linearGradient id="g" gradientUnits="userSpaceOnUse" x1="-604.992" x2="2095.01" xlink:href="#a" y1="391.638" y2="391.638"/><linearGradient id="h" gradientUnits="userSpaceOnUse" x1="-597.758" x2="2118.89" xlink:href="#a" y1="391.593" y2="391.593"/><linearGradient id="i" gradientUnits="userSpaceOnUse" x1="-590.609" x2="2142.6" xlink:href="#a" y1="391.477" y2="391.477"/><linearGradient id="j" gradientUnits="userSpaceOnUse" x1="-583.375" x2="2166.32" xlink:href="#a" y1="391.454" y2="391.454"/><linearGradient id="k" gradientUnits="userSpaceOnUse" x1="-576.141" x2="2190.04" xlink:href="#a" y1="391.247" y2="391.247"/><linearGradient id="l" gradientUnits="userSpaceOnUse" x1="-568.984" x2="2213.91" xlink:href="#a" y1="391.27" y2="391.27"/><linearGradient id="m" gradientUnits="userSpaceOnUse" x1="-561.75" x2="2237.56" xlink:href="#a" y1="391.108" y2="391.108"/><linearGradient id="n" gradientUnits="userSpaceOnUse" x1="-554.516" x2="2261.59" xlink:href="#a" y1="390.994" y2="390.994"/><linearGradient id="o" gradientUnits="userSpaceOnUse" x1="-547.367" x2="2285.22" xlink:href="#a" y1="390.925" y2="390.925"/><linearGradient id="p" gradientUnits="userSpaceOnUse" x1="-540.133" x2="2308.94" xlink:href="#a" y1="390.763" y2="390.763"/><linearGradient id="q" gradientUnits="userSpaceOnUse" x1="-532.898" x2="2332.66" xlink:href="#a" y1="390.602" y2="390.602"/><linearGradient id="r" gradientUnits="userSpaceOnUse" x1="-525.742" x2="2356.54" xlink:href="#a" y1="390.579" y2="390.579"/><linearGradient id="s" gradientUnits="userSpaceOnUse" x1="-518.516" x2="2380.33" xlink:href="#a" y1="390.464" y2="390.464"/><linearGradient id="t" gradientUnits="userSpaceOnUse" x1="-511.281" x2="2404.28" xlink:href="#a" y1="390.325" y2="390.325"/><linearGradient id="u" gradientUnits="userSpaceOnUse" x1="-504.125" x2="2427.85" xlink:href="#a" y1="390.303" y2="390.303"/><linearGradient id="v" gradientUnits="userSpaceOnUse" x1="-496.891" x2="2451.73" xlink:href="#a" y1="390.141" y2="390.141"/><linearGradient id="w" gradientUnits="userSpaceOnUse" x1="-489.656" x2="2475.45" xlink:href="#a" y1="390.095" y2="390.095"/><linearGradient id="x" gradientUnits="userSpaceOnUse" x1="-482.5" x2="2499.24" xlink:href="#a" y1="389.934" y2="389.934"/><linearGradient id="y" gradientUnits="userSpaceOnUse" x1="-475.273" x2="2523.11" xlink:href="#a" y1="389.842" y2="389.842"/><linearGradient id="z" gradientUnits="userSpaceOnUse" x1="-468.039" x2="2546.91" xlink:href="#a" y1="389.704" y2="389.704"/><linearGradient id="A" gradientUnits="userSpaceOnUse" x1="-460.961" x2="2570.48" xlink:href="#a" y1="389.658" y2="389.658"/><linearGradient id="B" gradientUnits="userSpaceOnUse" x1="-453.727" x2="2594.35" xlink:href="#a" y1="389.519" y2="389.519"/><linearGradient id="C" gradientUnits="userSpaceOnUse" x1="-446.5" x2="2618.3" xlink:href="#a" y1="389.497" y2="389.497"/><linearGradient id="D" gradientUnits="userSpaceOnUse" x1="-439.266" x2="2641.94" xlink:href="#a" y1="389.336" y2="389.336"/><linearGradient id="E" gradientUnits="userSpaceOnUse" x1="-432.109" x2="2665.82" xlink:href="#a" y1="389.359" y2="389.359"/><path d="m-638.667 784.521-2.333-.093c11.899-100.763 46.817-203.609 98.301-289.553 30.719-51.261 67.426-97.012 109.033-136.048 46.351-43.435 99.389-78.859 157.561-105.393 118.754-54.132 260.5285-72.052 421.512-53.298 146.207 17.04 274.215 60.753 398.103 103.031 84.457 28.849 171.715 58.624 263.483 79.415 49.306 11.16 96.046 18.94 142.785 23.755 52.412 5.372 103.592 6.946 156.392 4.77 175.84-7.316 347.63-55.012 510.72-141.79 68.12-36.258 135.08-79.647 198.93-128.824 55.3-42.6479 108.65-89.8803 158.5-140.493l2.02.694566c-49.93 50.659034-103.28 97.984034-158.65 140.632434-63.93 49.27-130.97 92.705-199.17 129.009-163.47 87.009-335.73 134.844-512.11 142.16-53.04 2.223-104.37.648-156.943-4.769-46.895-4.816-93.712-12.596-143.252-23.848-91.923-20.838-179.259-50.659-263.794-79.508-123.654-42.231-251.585-85.898-397.403-102.893-83.0582-9.678-161.6833-9.585-233.7758.325-66.7262 9.168-129.1752 26.904-185.7912 52.696-57.939 26.441-110.744 61.773-156.94 105.023-41.529 38.897-78.158 84.601-108.799 135.77-51.406 85.805-86.247 188.512-98.223 289.182z" fill="url(#b)"/><path d="m-631.588 779.704-2.256-.139c6.766-46.769 18.354-93.862 34.452-139.937 18.121-51.909 41.451-100.994 69.448-145.957 31.419-50.474 68.593-95.623 110.511-134.103 46.662-42.834 99.701-77.934 157.795-104.375 119.065-54.271 260.683654-73.025 420.967-55.752 68.126 7.316 138.43 20.93 214.955 41.583 68.204 18.43 134.853 40.564 199.324 62.004 77.769 25.839 158.183 52.604 241.63 72.793 110.666 26.811 210.442 37.74 313.882 34.406 175.37-5.928 347.16-52.419 510.48-138.271 68.28-35.887 135.39-78.859 199.4-127.712 55.53-42.371 109.03-89.3715 159.04-139.7064l1.94.6946c-50.08 50.3812-103.67 97.4288-159.19 139.8448-64.16 48.946-131.28 91.964-199.72 127.898-163.78 86.037-335.96 132.667-511.88 138.595-103.82 3.334-203.83-7.595-314.807-34.499-83.525-20.235-164.017-47-241.864-72.886-64.393-21.439-131.042-43.574-199.168-61.957-76.37-20.607-146.518-34.174-214.411-41.491-82.6691-8.891-161.13867-8.196-233.1533 2.13-66.6487 9.539-129.2527 27.506-186.0247 53.391-57.861 26.349-110.744 61.356-157.251 104.051-41.84 38.434-78.936 83.443-110.355 133.871-27.919 44.871-51.25 93.955-69.37 145.772-16.099 46.028-27.608 93.029-34.374 139.752z" fill="url(#c)"/><path d="m-624.432 774.889-2.177-.139c7.932-46.399 20.531-92.983 37.485-138.363 19.131-51.168 43.317-99.605 71.859-143.873 32.119-49.687 69.837-94.187 112.066-132.205 46.973-42.231 100.089-77.053 157.95-103.402 119.454-54.363 260.9172-73.951 420.423-58.207 70.848 6.993 144.107 20.514 223.899 41.398 71.081 18.615 140.685 41.166 208.033 63.023 74.737 24.218 151.962 49.27 231.521 68.996 112.688 27.923 212.933 39.777 315.273 37.277 174.91-4.307 346.62-49.548 510.33-134.52 68.36-35.47 135.63-78.118 199.94-126.74 55.61-42.092 109.35-88.8618 159.67-139.01144l1.86.64828c-50.31 50.19596-104.13 97.01116-159.81 139.15016-64.32 48.668-131.75 91.362-200.18 126.926-164.1 85.157-336.28 130.537-511.73 134.843-8.94.232-17.88.325-26.75.325-93.56 0-186.258-12.133-289.459-37.694-79.636-19.726-156.939-44.824-231.676-69.042-67.27-21.811-136.874-44.408-207.878-62.977-79.636-20.838-152.662-34.359-223.354-41.305-82.2806-8.104-160.5169-6.807-232.4538 3.936-66.5712 9.91-129.2532 28.108-186.2582 54.039-57.705 26.256-110.666 60.939-157.484 103.078-42.151 37.925-79.791 82.333-111.832 131.973-28.542 44.222-52.728 92.566-71.782 143.688-16.954 45.334-29.552 91.826-37.485 138.224z" fill="url(#d)"/><path d="m-617.283 770.119-2.1-.139c9.099-46.074 22.787-92.103 40.596-136.835 20.065-50.474 45.106-98.169 74.348-141.789 32.818-48.946 71.003-92.752 113.543-130.306 47.207-41.676 100.479-76.128 158.184-102.383 57.472-26.117 120.465-44.593 187.2692-54.92 72.1702-11.159 150.4838-13.104 232.6868-5.742 73.881 6.622 150.329 20.144 233.62 41.259 74.27 18.847 147.14 41.954 217.522 64.273 71.081 22.505 144.574 45.797 219.777 64.875 53.817 13.614 103.356 23.431 151.257 30.007 56.15 7.687 110.28 10.974 165.5 10.095 174.44-2.779 346.07-46.816 510.17-130.908 68.51-35.1 135.94-77.378 200.41-125.675 55.84-41.815 109.73-88.3063 160.21-138.2245l1.78.6483c-50.55 49.9645-104.52 96.5022-160.36 138.3632-64.55 48.344-132.13 90.714-200.72 125.86-164.48 84.278-336.51 128.408-511.49 131.186-55.37.88-109.66-2.408-166.04-10.141-48.061-6.576-97.678-16.439-151.651-30.099-75.281-19.078-148.851-42.37-219.932-64.922-70.382-22.319-143.174-45.38-217.366-64.226-83.136-21.116-159.35-34.591-233.154-41.213-81.969-7.363-159.9718-5.418-231.831 5.696-66.571 10.28-129.331 28.71-186.492 54.734-57.549 26.163-110.666 60.522-157.716 102.059-42.463 37.461-80.57 81.221-113.311 130.074-29.163 43.574-54.205 91.177-74.27 141.605-17.809 44.685-31.419 90.667-40.518 136.695z" fill="url(#e)"/><path d="m-610.205 765.304-2.022-.139c15.477-68.673 48.918-172.121 120.466-274.967 33.518-48.158 72.17-91.362 115.021-128.407 47.517-41.12 100.789-75.201 158.417-101.364 57.627-26.163 120.6982-44.871 187.5024-55.568 72.0925-11.576 150.1736-14.077 231.9866-7.455 77.226 6.251 157.173 19.726 244.353 41.259 77.769 19.17 154.061 42.879 227.942 65.801 66.805 20.745 135.942 42.185 206.245 60.383 54.595 14.124 104.367 24.357 152.044 31.303 56.53 8.243 110.9 12.04 166.11 11.623 173.97-1.296 345.61-44.13 510.02-127.296 68.59-34.683 136.25-76.637 200.95-124.61 56-41.537 110.12-87.7966 160.83-137.4832l1.71.6483c-50.78 49.7329-104.91 95.9929-160.98 137.5759-64.78 48.066-132.52 90.019-201.19 124.795-164.8 83.352-336.82 126.277-511.34 127.574-55.37.417-109.89-3.427-166.66-11.669-47.827-6.992-97.677-17.226-152.427-31.396-70.381-18.198-139.518-39.638-206.323-60.429-73.803-22.922-150.095-46.585-227.787-65.755-87.024-21.486-166.738-34.915-243.808-41.167-81.58-6.575-159.3499-4.075-231.209 7.456-66.4931 10.65-129.331 29.312-186.803 55.382-57.394 26.07-110.588 60.059-157.95 101.087-42.773 36.998-81.425 80.109-114.788 128.175-71.392 102.708-104.833 206.063-120.31 274.689z" fill="url(#f)"/><path d="m-603.048 760.488-1.944-.185c17.187-67.885 44.406-136.187 78.858-197.635 41.374-73.72 92.857-138.039 153.051-191.199 69.915-61.726 151.34-108.079 242.097-137.761 49.928-16.346 103.5113-27.784 159.1166-34.082 59.0271-6.668 121.9424-7.686 186.9584-3.009 80.958 5.788 164.716 19.309 256.095 41.258 81.503 19.588 161.683 44.038 239.22 67.654 61.904 18.847 125.909 38.388 190.691 55.475 119.685 31.581 218.295 45.704 319.635 45.797h1.09c173.19 0 344.36-41.583 508.77-123.684 68.74-34.313 136.48-75.896 201.42-123.545 56.23-41.259 110.51-87.2414 161.45-136.6965l1.71.602c-50.94 49.4551-105.3 95.5295-161.53 136.8345-65.01 47.742-132.91 89.372-201.73 123.731-164.8 82.24-336.36 123.915-510.02 123.915-.38 0-.7 0-1.08 0-101.65-.092-200.49-14.262-320.415-45.936-64.782-17.087-128.864-36.628-190.769-55.474-77.536-23.617-157.639-48.066-239.064-67.607-91.224-21.95-174.826-35.425-255.551-41.213-64.782-4.631-127.5422-3.612-186.3361 3.01-55.4497 6.251-108.7997 17.689-158.5719 33.989-90.524 29.589-171.716 75.803-241.475 137.39-60.116 53.067-111.522 117.294-152.818 190.921-34.451 61.356-61.671 129.611-78.78 197.404z" fill="url(#g)"/><path d="m-595.891 755.719-1.867-.186c24.575-87.518 88.347-253.851 239.686-384.295 70.693-60.893 152.507-106.782 243.186-136.418 49.8504-16.3 103.2003-27.923 158.5723-34.452 58.6387-6.946 121.0877-8.428 185.4807-4.399 85.002 5.325 172.96 18.893 269.005 41.397 85.703 20.097 170.082 45.427 251.663 69.923 56.227 16.855 114.399 34.313 172.882 50.057 81.813 21.995 192.243 47.464 321.113 48.668 173.11 1.62 344.52-38.759 509.62-120.072 68.83-33.897 136.8-75.109 201.97-122.48 56.38-40.981 110.9-86.732 161.99-135.9093l1.64.602c-51.17 49.2236-105.69 95.0203-162.15 136.0483-65.25 47.417-133.22 88.676-202.2 122.619-162.23 79.878-330.68 120.349-500.76 120.349-3.42 0-6.77 0-10.11-.046-129.18-1.204-239.84-26.719-321.813-48.76-58.561-15.744-116.655-33.202-172.96-50.104-81.58-24.496-165.883-49.779-251.507-69.876-95.89-22.505-183.692-36.026-268.539-41.351-64.237-4.029-126.375-2.547-184.858 4.352-55.1388 6.53-108.2555 18.106-158.028 34.36-90.446 29.543-172.026 75.34-242.564 136.094-151.106 130.213-214.877 296.36-239.375 383.832z" fill="url(#h)"/><path d="m-588.821 750.902-1.788-.185c20.92-67.839 50.55-132.991 87.957-193.653 44.173-71.635 97.912-134.288 159.583-186.151 71.393-60.059 153.595-105.485 244.2749-135.121 49.7726-16.3 102.96695-28.016 157.9501-34.823 58.327-7.223 120.154-9.168 183.925-5.695 89.435 4.816 182.137 18.476 283.237 41.675 90.291 20.745 179.259 47.14 265.35 72.655 49.695 14.725 101.101 29.96 152.507 44.083 57.865 15.883 106.935 27.089 154.455 35.239 57.86 9.956 112.76 15.281 168.06 16.254 6.29.093 12.67.185 18.97.185 166.19 0 331.14-39.175 490.49-116.645 68.99-33.526 137.11-74.368 202.44-121.415 56.62-40.75 111.29-86.1763 162.62-135.1683l1.55.5557c-51.33 48.992-106.08 94.5106-162.77 135.2606-65.41 47.093-133.61 87.982-202.75 121.554-159.74 77.609-325 116.877-491.66 116.877-6.37 0-12.67-.046-18.97-.185-55.37-.973-110.51-6.344-168.53-16.3-47.59-8.196-96.74-19.402-154.761-35.286-51.483-14.123-102.889-29.358-152.584-44.083-86.013-25.515-174.982-51.909-265.194-72.608-100.945-23.2-193.413-36.814-282.693-41.63-63.616-3.426-125.287-1.528-183.3808 5.696-54.82761 6.807-107.7888 18.476-157.4836 34.73-90.3686 29.543-172.3376 74.923-243.6526 134.797-61.593 51.771-115.177 114.33-159.35 185.874-37.407 60.614-66.959 125.675-87.879 193.467z" fill="url(#i)"/><path d="m-581.664 746.086-1.711-.185c22.709-67.283 53.817-131.787 92.468-191.661 45.573-70.664 100.401-132.436 162.85-183.651 72.17-59.179 154.684-104.235 245.2852-133.825 49.6948-16.254 102.656-28.108 157.3281-35.147 57.9387-7.501 119.2987-9.863 182.4477-6.992 94.412 4.26 192.168 18.013 298.868 42.093 95.268 21.486 189.37 49.177 280.36 75.896 42.229 12.41 85.858 25.283 129.331 37.415 89.587 25.005 198.157 51.03 323.987 54.364 172.18 4.538 343.51-33.434 509.31-112.895 69.14-33.109 137.42-73.581 202.98-120.304 56.78-40.471 111.68-85.6663 163.16-134.3805l1.48.5557c-51.56 48.7605-106.46 94.0018-163.31 134.4728-65.64 46.77-134 87.288-203.22 120.489-157.25 75.341-319.47 113.451-482.79 113.451-9.25 0-18.43-.139-27.69-.371-126.14-3.334-234.86-29.404-324.607-54.456-43.551-12.178-87.18-25.005-129.409-37.415-90.912-26.765-184.936-54.41-280.204-75.896-106.544-24.033-204.145-37.786-298.402-42-62.993-2.825-124.198-.509-181.903 6.992-54.5165 7.039-107.3221 18.847-156.8614 35.054-90.3686 29.543-172.7266 74.46-244.7406 133.547-62.372 51.122-117.044 112.849-162.617 183.419-38.651 59.828-69.681 124.24-92.39 191.523z" fill="url(#j)"/><path d="m-574.507 741.271-1.634-.232c24.42-66.774 57.083-130.584 96.979-189.717 47.051-69.644 102.889-130.583 166.116-181.196 72.948-58.346 155.851-102.939 246.3744-132.575 49.617-16.207 102.3448-28.154 156.7058-35.47 57.5498-7.734 118.4428-10.512 180.8918-8.289 53.506 1.945 106.545 6.668 161.995 14.447 49.539 6.946 99.934 16.161 154.217 28.201 100.867 22.412 200.49 51.631 296.847 79.832 33.674 9.863 68.515 20.05 103.044 29.914 90.911 25.838 200.721 52.881 325.391 57.234 171.71 5.974 342.96-30.794 509.08-109.283 69.21-32.692 137.73-72.839 203.52-119.238 57.01-40.194 112.07-85.1112 163.78-133.5938l1.4.5556c-51.71 48.4827-106.85 93.4922-163.93 133.6862-65.88 46.445-134.39 86.639-203.76 119.378-154.76 73.163-314.11 110.116-474.09 110.116-12.05 0-24.1-.232-36.16-.648-124.97-4.353-234.94-31.396-326.008-57.328-34.53-9.817-69.371-20.05-103.045-29.913-96.357-28.247-195.902-57.42-296.691-79.786-54.206-12.04-104.523-21.255-153.984-28.201-55.45-7.779-108.333-12.456-161.761-14.401-62.371-2.269-123.032.509-180.4257 8.243-54.2054 7.316-106.7777 19.217-156.317 35.378-90.3683 29.543-173.0373 74.043-245.8303 132.297-63.149 50.52-118.987 111.412-165.882 180.964-39.896 59.087-72.482 122.851-96.901 189.578z" fill="url(#k)"/><path d="m-567.429 736.501-1.555-.232c26.208-66.172 60.349-129.38 101.567-187.772 48.45-68.626 105.455-128.778 169.46-178.742 73.648-57.512 156.939-101.689 247.4629-131.278 49.539327-16.207 102.1115-28.247 156.0841-35.795 57.16-8.011 117.509-11.206 179.336-9.493 56.772 1.575 113 6.159 171.871 14.124 52.495 7.085 106 16.67 163.55 29.358 106.933 23.523 212.778 54.549 315.045 84.601 23.953 7.039 48.684 14.309 73.178 21.394 61.52 17.781 109.89 29.867 156.86 39.175 59.03 11.669 114.64 18.522 170.01 20.93 171.25 7.409 342.42-28.154 508.92-105.717 69.37-32.322 137.97-72.052 203.99-118.127 57.16-39.916 112.46-84.6016 164.41-132.8064l1.32.5094c-51.95 48.2511-107.24 92.983-164.48 132.899-66.11 46.121-134.78 85.944-204.23 118.266-152.35 70.988-308.82 106.875-465.6 106.875-14.78 0-29.63-.324-44.41-.973-55.45-2.407-111.21-9.261-170.39-20.976-47.05-9.308-95.5-21.394-157.1-39.222-24.494-7.085-49.225-14.355-73.178-21.393-102.267-30.007-208.034-61.032-314.89-84.555-57.471-12.642-110.899-22.227-163.316-29.312-58.794-7.919-114.866-12.549-171.56-14.077-61.749-1.714-121.942 1.481-178.948 9.492-53.894 7.548-106.310703 19.588-155.6944 35.703-90.2906 29.497-173.3486 73.58-246.9186 131-63.927 49.918-120.854 109.977-169.227 178.511-41.218 58.346-75.359 121.507-101.489 187.633z" fill="url(#l)"/><path d="m-560.272 731.685-1.478-.232c27.919-65.616 63.616-128.129 106.078-185.873 49.772-67.607 107.944-126.926 172.726-176.288 74.426-56.725 158.028-100.438 248.4743-129.982 101.8782-33.294 214.0217-49.038 333.3207-46.815 60.427 1.111 120.154 5.649 182.759 13.799 55.838 7.27 112.688 17.318 173.892 30.701 113.7 24.913 226.31 58.161 335.188 90.297 13.062 3.89 26.212 7.733 39.352 11.623 98.46 28.941 206.32 56.633 328.27 62.93 170.78 8.845 341.95-25.561 508.69-102.151 69.44-31.905 138.27-71.312 204.53-117.063 57.39-39.638 112.92-84.0454 164.95-132.0187l1.24.5094c-52.1 48.0196-107.63 92.4733-165.1 132.1113-66.34 45.797-135.16 85.204-204.77 117.155-150.02 68.904-303.61 103.68-457.21 103.68-17.49 0-34.99-.463-52.57-1.343-122.25-6.298-230.27-34.035-328.81-63.023-13.14-3.843-26.28-7.733-39.35-11.623-108.8-32.136-221.332-65.384-335.032-90.251-61.127-13.382-117.898-23.43-173.659-30.701-62.527-8.149-122.176-12.641-182.448-13.753-61.049-1.111-120.776 2.455-177.392 10.697-53.5837 7.78-105.7671 19.912-155.1509 36.027-90.2901 29.497-173.7371 73.163-248.0071 129.75-64.705 49.316-122.799 108.541-172.571 176.102-42.462 57.698-78.159 120.165-106 185.688z" fill="url(#m)"/><path d="m-553.116 726.87-1.4-.232c29.553-65.014 66.805-126.879 110.667-183.928 51.172-66.635 110.433-125.12 176.07-173.927 75.203-55.891 159.117-99.188 249.5629-128.731 101.6449-33.202 213.0891-49.455 331.1431-48.298 64.393.649 128.164 5.048 194.891 13.476 59.571 7.547 120.154 18.152 185.325 32.414 121.243 26.58 241.319 62.467 357.427 97.197l1.01.324c42.78 12.78 99.55 29.127 158.5 41.768 59.88 12.827 115.87 20.699 171.25 24.033 170.31 10.234 341.41-22.921 508.53-98.586 69.61-31.534 138.59-70.524 205.08-115.951 57.55-39.36 113.31-83.536 165.57-131.2317l1.25.463c-52.34 47.7417-108.1 91.9647-165.73 131.3247-66.49 45.473-135.55 84.509-205.23 116.043-147.69 66.82-298.41 100.578-449.05 100.578-20.14 0-40.36-.602-60.5-1.806-55.53-3.334-111.6-11.207-171.64-24.08-59.03-12.641-115.8-28.987-158.65-41.768l-1.01-.324c-116.11-34.73-236.109-70.617-357.274-97.151-65.093-14.262-125.676-24.866-185.169-32.414-66.649-8.428-130.264-12.827-194.58-13.475-117.821-1.158-229.0316 15.049-330.4432 48.205-90.2128 29.451-174.0488 72.701-249.0958 128.5-65.56 48.714-124.743 107.152-175.838 173.741-43.784 57.003-81.036 118.868-110.588 183.789z" fill="url(#n)"/><path d="m-546.045 722.053-1.322-.231c31.263-64.366 69.992-125.629 115.177-182.03 52.572-65.616 112.921-123.314 179.336-171.518 75.904-55.059 160.2059-97.938 250.65197-127.435 101.41163-33.109 212.15603-49.826 328.96603-49.733 65.248.046 129.797 3.936 197.146 11.808 60.66 7.131 122.02 17.319 187.736 31.21 124.12 26.256 246.607 62.514 361.314 97.382 94.49 28.71 205.7 60.013 331.15 68.626 169.85 11.623 340.86-20.328 508.38-95.02 69.76-31.118 138.89-69.737 205.54-114.84 57.78-39.082 113.7-82.98 166.2-130.4444l1.16.4631c-52.49 47.5103-108.49 91.4083-166.27 130.5373-66.73 45.149-135.94 83.814-205.78 114.932-145.35 64.829-293.42 97.521-441.03 97.521-22.79 0-45.49-.787-68.28-2.315-125.68-8.613-237.04-39.962-331.61-68.719-114.711-34.868-237.121-71.08-361.163-97.335-65.638-13.892-126.92-24.08-187.503-31.165-67.27-7.872-131.664-11.761-196.835-11.808-.311 0-.7 0-1.089 0-116.265 0-226.3092 16.717-327.25426 49.641-90.21284 29.45-174.43774 72.284-250.26274 127.249-66.338 48.159-126.687 105.81-179.181 171.38-45.184 56.354-83.914 117.571-115.099 181.891z" fill="url(#o)"/><path d="m-538.888 717.238-1.245-.232c32.897-63.764 73.182-124.378 119.766-180.131 53.894-64.644 115.41-121.554 182.68-169.157 76.681-54.271 161.2946-96.734 251.6629-126.185 101.1781-33.016 211.1451-50.196 326.7881-51.122 124.82-.972 251.974 12.086 388.926 40.009 127.542 26.024 250.651 62.189 364.74 97.382 100.24 30.933 208.58 61.912 332.62 71.451 169.38 13.012 340.4-17.782 508.15-91.502 69.83-30.701 139.21-68.95 206.09-113.728 58.01-38.804 114.09-82.425 166.74-129.6573l1.08.4168c-52.72 47.2785-108.87 90.8995-166.89 129.7505-66.96 44.778-136.33 83.073-206.32 113.82-168.06 73.859-339.31 104.699-509.08 91.64-124.28-9.539-232.69-40.564-333.01-71.543-114.013-35.192-237.122-71.311-364.587-97.335-136.796-27.923-263.872-40.981-388.459-39.963-115.41.926-225.143 18.106-326.2436 51.03-90.2128 29.404-174.7484 71.821-251.3514 125.999-67.193 47.557-128.631 104.467-182.526 169.018-46.506 55.753-86.79 116.321-119.687 180.039z" fill="url(#p)"/><path d="m-531.732 712.422-1.166-.232c34.529-63.115 76.369-123.082 124.275-178.279 55.295-63.625 117.821-119.748 185.948-166.841 77.38-53.438 162.3827-95.484 252.751-124.935 101.023-32.923 210.211-50.566 324.61-52.511 126.92-2.13 255.474 9.956 392.97 36.999 136.253 26.811 268.384 66.125 368.164 97.382 101.8 31.859 211.38 63.856 334.02 74.321 168.99 14.402 339.85-15.188 507.99-87.982 69.99-30.284 139.52-68.209 206.63-112.616 58.18-38.527 114.48-81.87 167.36-128.8706l1.01.4168c-52.88 47.0008-109.18 90.3898-167.43 128.9628-67.12 44.454-136.72 82.379-206.79 112.71-140.77 60.939-283.55 91.64-425.48 91.64-27.84 0-55.68-1.204-83.45-3.566-122.87-10.465-232.61-42.509-334.41-74.414-189.988-59.504-296.454-83.305-368.002-97.336-137.419-26.996-265.817-39.129-392.582-36.952-114.243 1.945-223.276 19.587-324.0657 52.418-90.2128 29.405-175.1373 71.358-252.4403 124.749-68.048 47.048-130.575 103.125-185.792 166.703-47.906 55.151-89.668 115.071-124.198 178.14z" fill="url(#q)"/><path d="m-524.653 707.653-1.089-.232c54.827-94.604 154.45-230.559 318.155-340.907 78.081-52.65 163.4723-94.279 253.8406-123.684 100.7114-32.784 209.2784-50.89 322.4324-53.854 129.02-3.334 258.896 7.78 397.092 33.943 111.367 21.115 225.999 51.168 371.582 97.428 107.56 34.174 214.18 65.801 335.5 77.193 168.53 15.79 339.39-12.642 507.84-84.417 70.14-29.914 139.83-67.422 207.1-111.505 58.4-38.249 114.86-81.314 167.98-128.0369l.93.3704c-53.04 46.7695-109.58 89.8805-168.06 128.1295-67.35 44.13-137.11 81.638-207.33 111.598-138.51 59.04-278.65 88.815-417.86 88.815-30.33 0-60.58-1.389-90.83-4.26-121.48-11.391-228.18-43.018-335.89-77.239-145.585-46.26-260.14-76.312-371.428-97.382-138.041-26.163-267.839-37.276-396.703-33.942-113.077 2.917-221.411 21.023-321.9667 53.761-90.2128 29.359-175.5263 70.942-253.5293 123.499-163.549 110.302-263.172 246.118-317.922 340.675z" fill="url(#r)"/><path d="m-517.505 702.836-1.011-.231c57.006-93.261 159.817-227.41 326.011-336.786 78.78-51.863 164.5604-93.029 254.9287-122.433 100.4783-32.692 208.2673-51.215 320.3333-55.105 131.042-4.538 262.239 5.557 401.136 30.887 114.243 20.837 233.387 51.816 375.087 97.474 113.38 36.536 216.97 67.793 336.89 80.017 168.06 17.134 338.85-10.048 507.61-80.897 70.22-29.497 140.14-66.634 207.64-110.347 58.64-37.972 115.33-80.805 168.53-127.25l.85.3705c-53.27 46.4915-109.96 89.3245-168.6 127.3425-67.58 43.759-137.5 80.943-207.8 110.44-136.25 57.188-273.91 85.991-410.39 85.991-32.74 0-65.48-1.667-98.07-5.001-120.08-12.271-223.82-43.528-337.29-80.11-141.62-45.658-260.68-76.591-374.846-97.428-138.741-25.33-269.861-35.425-400.825-30.887-111.833 3.89-219.466 22.412-319.8665 55.058-90.2128 29.359-175.9145 70.479-254.6175 122.295-166.038 109.283-268.85 243.34-325.777 336.554z" fill="url(#s)"/><path d="m-510.348 698.02-.933-.231c59.182-91.918 165.105-224.262 333.865-332.665 79.4803-51.075 165.6491-91.825 256.0174-121.183 100.2446-32.553 207.3336-51.539 318.1556-56.401 133.064-5.835 265.583 3.288 405.258 27.83 116.421 20.467 240.235 52.372 378.505 97.567 54.36 17.782 107.79 34.915 163.24 49.455 62.29 16.347 119.61 27.275 175.14 33.387 167.67 18.523 338.37-7.548 507.44-77.378 70.38-29.08 140.45-65.847 208.11-109.236 58.8-37.693 115.73-80.249 169.15-126.4624l.86.3242c-53.43 46.2602-110.36 88.8152-169.23 126.5092-67.74 43.435-137.88 80.202-208.34 109.329-134.08 55.382-269.24 83.258-403.01 83.258-35.15 0-70.22-1.945-105.22-5.788-55.6-6.159-113-17.087-175.37-33.433-55.53-14.54-108.95-31.72-163.31-49.502-138.2-45.148-261.933-77.053-378.276-97.521-139.519-24.542-271.961-33.618-404.869-27.783-110.666 4.862-217.6 23.801-317.7669 56.308-90.2905 29.312-176.3038 70.061-255.7061 121.045-168.683 108.31-274.527 240.561-333.71 332.479z" fill="url(#t)"/><path d="m-503.27 693.205-.855-.186c61.282-90.575 170.316-221.066 341.72-328.543 80.1804-50.242 166.66025-90.621 257.0286-119.933 100.0114-32.414 206.3224-51.816 315.9784-57.605 68.903-3.658 139.13-3.241 208.811 1.204 65.56 4.168 132.986 12.086 200.49 23.524 119.843 20.282 244.737 52.233 381.927 97.66 100.09 33.155 213.56 70.756 339.78 85.713 167.2 19.865 337.9-5.001 507.29-73.905 166.27-67.607 297.54-164.434 378.35-233.7541l.77.3241c-80.88 69.367-212.15 166.239-378.58 233.893-131.9 53.623-264.57 80.619-395.77 80.619-37.56 0-74.97-2.223-112.22-6.622-126.38-15.003-239.92-52.604-340.09-85.805-137.1-45.427-261.925-77.332-381.69-97.614-67.426-11.391-134.853-19.309-200.335-23.477-69.604-4.445-139.829-4.862-208.656-1.204-109.499 5.788-215.733 25.144-315.6667 57.559-90.29053 29.265-176.6925 69.598-256.7953 119.84-171.327 107.431-280.282 237.875-341.564 328.404z" fill="url(#u)"/><path d="m-496.113 688.388-.778-.185c63.305-89.186 175.371-217.917 349.575-324.514 80.8805-49.455 167.6713-89.417 258.117-118.683 99.779-32.322 205.39-52.094 313.879-58.809 69.604-4.306 140.53-4.492 210.756-.602 66.415 3.658 134.619 11.16 202.589 22.227 122.954 20.004 249.015 52.002 385.345 97.753 106.55 35.748 216.75 72.747 341.26 88.583 166.81 21.209 337.44-2.454 507.13-70.385 166.66-66.681 298.33-162.859 379.44-231.8091l.7.2778c-81.11 68.9503-212.93 165.2203-379.67 231.9483-129.72 51.909-259.98 77.979-388.62 77.979-39.89 0-79.63-2.5-119.14-7.547-124.59-15.837-234.86-52.836-341.48-88.631-136.34-45.75-262.322-77.702-385.198-97.706-67.971-11.067-136.019-18.522-202.434-22.227-70.226-3.89-141.074-3.658-210.6.602-108.411 6.715-213.867 26.487-313.568 58.763-90.368 29.265-177.159 69.135-257.884 118.59-174.126 106.551-286.114 235.19-349.341 324.329z" fill="url(#v)"/><path d="m-488.956 683.573-.7-.185c65.326-87.797 180.27-214.676 357.351-320.44 81.5029-48.668 168.6827-88.213 259.207-117.432 99.545-32.183 204.378-52.326 311.778-59.967 70.304-5.001 141.852-5.835 212.7-2.5 67.349 3.195 136.175 10.233 204.69 20.976 125.831 19.727 252.98 51.724 388.77 97.892l4.28 1.435c106.08 36.073 215.73 73.349 338.37 89.973 166.35 22.551 336.9 0 506.98-66.866 167.05-65.755 299.18-161.285 380.53-229.8643l.62.2779c-81.42 68.5794-213.63 164.2024-380.76 229.9564-127.54 50.196-255.39 75.433-381.61 75.433-42.23 0-84.23-2.824-125.99-8.474-122.72-16.624-232.45-53.947-338.61-90.019l-4.28-1.436c-135.78-46.167-262.858-78.165-388.611-97.845-68.438-10.743-137.342-17.781-204.612-20.93-70.771-3.334-142.319-2.501-212.545 2.5-107.244 7.595-212.078 27.784-311.467 59.921-90.3685 29.219-177.5483 68.718-258.973 117.386-177.004 105.717-291.947 232.55-357.196 320.3z" fill="url(#w)"/><path d="m-481.878 678.757-.622-.185c67.193-86.408 185.092-211.481 365.206-316.457 82.1251-47.881 169.6937-87.01 260.218-116.229 99.234-32.044 203.445-52.604 309.678-61.078 264.417-21.208 530.623 15.883 813.708 113.358l10.03 3.427c104.83 36.119 213.24 73.441 334.1 90.853 165.96 23.894 336.43 2.546 506.82-63.394 167.44-64.828 299.96-159.71 381.62-227.873l.54.232c-81.73 68.209-214.33 163.137-381.85 228.012-125.36 48.529-250.88 72.932-374.61 72.932-44.49 0-88.82-3.149-132.76-9.493-121.01-17.411-229.42-54.78-334.25-90.899l-10.03-3.427c-283.006-97.428-549.056-134.519-813.318-113.311-106.155 8.52-210.211 29.034-309.445 61.032-90.4463 29.219-178.0149 68.255-260.062 116.136-179.959 104.93-297.858 229.957-365.051 316.318z" fill="url(#x)"/><path d="m-474.729 673.941-.544-.185c69.059-85.018 189.835-208.239 372.983-312.474 82.7468-47.094 170.7043-85.806 261.306-114.979 99.001-31.858 202.434-52.789 307.579-62.189 71.626-6.39 144.496-8.52 216.511-6.298 69.059 2.13 139.363 8.335 208.967 18.43 66.415 9.632 134.227 23.061 201.577 39.962 63.85 16.022 129.18 35.61 194.19 58.3 5.21 1.806 10.35 3.612 15.56 5.418 103.66 36.165 210.83 73.581 329.97 91.733 165.57 25.19 336.05 5.047 506.67-59.921 167.83-63.856 300.74-158.136 382.71-225.928l.54.232c-82.05 67.838-215.03 162.118-382.94 226.02-170.78 65.014-341.48 85.158-507.13 59.967-119.3-18.152-226.47-55.568-330.21-91.779-5.21-1.806-10.35-3.612-15.56-5.418-65.01-22.644-130.34-42.277-194.11-58.299-67.27-16.902-135.085-30.331-201.423-39.916-69.604-10.095-139.908-16.254-208.889-18.43-72.015-2.223-144.807-.139-216.355 6.297-105.067 9.401-208.501 30.331-307.346 62.143-90.6017 29.173-178.4814 67.839-261.151 114.933-183.069 104.189-303.768 227.363-372.827 312.335z" fill="url(#y)"/><path d="m-467.572 669.125-.467-.139c101.645-119.887 233.309-226.576 380.7602-308.492 83.36907-46.306 171.6376-84.601 262.3948-113.774 98.69-31.72 201.501-53.021 305.557-63.301 72.248-7.131 145.74-9.91 218.377-8.243 69.837 1.621 140.919 7.363 211.145 17.134 67.348 9.354 135.785 22.644 203.525 39.545 64.7 16.115 130.5 35.934 195.67 58.902 6.92 2.454 13.92 4.908 20.84 7.363 102.5 36.257 208.5 73.719 326.09 92.612 165.18 26.534 335.57 7.548 506.51-56.401 168.22-62.93 301.51-156.515 383.79-223.983l.47.185c-82.28 67.468-215.73 161.099-383.95 224.03-121.16 45.333-242.02 68.07-361.01 68.07-49.07 0-97.75-3.89-145.97-11.623-117.66-18.893-223.74-56.401-326.24-92.659-6.92-2.454-13.92-4.908-20.84-7.363-65.1-22.968-130.97-42.787-195.6-58.901-67.73-16.856-136.17-30.146-203.441-39.499-70.226-9.771-141.152-15.513-210.989-17.134-72.637-1.667-146.051 1.112-218.299 8.243-103.978 10.28-206.712 31.534-305.324 63.254-90.6793 29.127-178.9479 67.422-262.2392 113.728-147.3738 81.916-279.0378 188.559-380.6048 308.4z" fill="url(#z)"/><path d="m-460.494 664.31-.467-.139c104.134-117.85 238.442-223.196 388.4594-304.556 83.9135-45.519 172.5706-83.398 263.4056-112.525 98.379-31.581 200.49-53.206 303.535-64.365 72.948-7.872 146.985-11.299 220.244-10.188 70.692 1.065 142.396 6.437 213.244 15.883 68.204 9.123 137.343 22.274 205.543 39.129 65.56 16.207 131.9 36.212 197.15 59.55 8.71 3.102 17.34 6.205 26.05 9.307 101.41 36.351 206.25 73.905 322.36 93.539 50.31 8.474 101.17 12.734 152.35 12.734 116.5 0 235.02-21.949 354-65.662 168.53-61.958 302.37-154.941 384.89-221.992l.39.185c-82.6 67.098-216.44 160.081-385.04 222.085-119.07 43.759-237.67 65.709-354.32 65.709-51.25 0-102.11-4.261-152.51-12.735-116.18-19.634-221.02-57.188-322.51-93.538-8.71-3.103-17.34-6.205-26.05-9.308-65.25-23.292-131.59-43.343-197.15-59.503-68.12-16.856-137.26-30.007-205.464-39.129-70.77-9.447-142.552-14.818-213.167-15.883-73.259-1.112-147.295 2.315-220.165 10.187-102.967 11.114-205.001 32.785-303.38 64.319-90.835 29.127-179.4144 66.959-263.3279 112.478-150.0171 81.36-284.2481 186.661-388.3811 304.464z" fill="url(#A)"/><path d="m-453.338 659.494-.389-.139c106.467-115.812 243.497-219.77 396.159-300.667 84.5357-44.732 173.504-82.194 264.495-111.32 98.067-31.396 199.557-53.391 301.513-65.385 73.492-8.659 148.229-12.734 222.11-12.178 71.47.556 143.951 5.464 215.344 14.633 69.056 8.844 138.896 21.903 207.566 38.758 66.34 16.3 133.22 36.536 198.7 60.152 10.35 3.751 20.84 7.548 31.03 11.252 100.4 36.443 204.15 74.136 318.78 94.465 44.1 7.826 89.28 12.364 134.23 13.568 42.77 1.111 86.48-.741 129.8-5.603 80.02-8.984 161.53-28.293 242.25-57.42 168.92-60.985 303.15-153.32 385.97-220.001l.31.139c-82.82 66.727-217.13 159.062-386.05 220.093-80.72 29.173-162.22 48.483-242.33 57.467-43.39 4.862-87.1 6.76-129.87 5.603-45.03-1.204-90.21-5.789-134.31-13.568-114.71-20.329-218.53-58.022-318.86-94.465-10.18-3.704-20.68-7.502-31.03-11.252-65.48-23.617-132.28-43.852-198.62-60.152-68.59-16.856-138.43-29.868-207.488-38.712-71.393-9.169-143.874-14.077-215.267-14.633-73.803-.556-148.54 3.519-222.032 12.179-101.878 11.993-203.29 33.988-301.358 65.338-90.99 29.126-179.9585 66.542-264.4164 111.274-152.6616 80.85-289.6136 184.762-396.0806 300.574z" fill="url(#B)"/><path d="m-446.189 654.677-.311-.092c108.8-113.775 248.474-216.389 403.8578-296.731 85.0022-43.944 174.3592-80.989 265.5832-110.116 97.757-31.21 198.546-53.53 299.569-66.403 74.037-9.4 149.318-14.17 223.821-14.17h.155c72.248 0 145.43 4.492 217.522 13.383 138.122 16.994 276.002 50.381 409.772 99.188 11.97 4.353 24.18 8.844 35.93 13.197 49.61 18.245 100.94 37.138 152.97 53.715 58.48 18.615 111.52 32.229 162.3 41.676 44.02 8.15 89.05 13.058 134 14.586 42.7 1.436 86.4-.139 129.72-4.723 80.03-8.428 161.61-27.228 242.41-55.892 169.3-60.059 303.92-151.699 387.06-218.009l.31.139c-83.14 66.356-217.83 157.997-387.14 218.102-80.88 28.664-162.46 47.51-242.56 55.938-43.4 4.584-87.03 6.159-129.8 4.723-44.95-1.528-90.06-6.436-134.07-14.586-50.79-9.447-103.9-23.061-162.39-41.676-52.1-16.578-103.43-35.471-153.05-53.715-11.74-4.353-23.95-8.798-35.93-13.197-133.68-48.807-271.49-82.148-409.61-99.142-72.092-8.845-145.196-13.383-217.444-13.383h-.155c-74.425 0-149.707 4.77-223.743 14.17-100.945 12.827-201.657 35.147-299.414 66.357-91.145 29.08-180.5029 66.125-265.5051 110.07-155.3839 80.341-295.0579 182.956-403.8579 296.684z" fill="url(#C)"/><path d="m-439.032 649.862-.234-.092c110.978-111.737 253.296-213.009 411.5573-292.887 85.5466-43.158 175.2147-79.786 266.5947-108.866 97.445-31.026 197.612-53.716 297.624-67.376 74.659-10.234 150.64-15.698 225.765-16.207 73.026-.556 146.907 3.519 219.622 12.132 140.223 16.531 279.273 50.011 413.263 99.466 13.38 4.908 26.91 9.956 39.98 14.864 49.23 18.337 100.17 37.323 151.8 54.086 57.94 18.8 110.59 32.692 160.83 42.463 43.94 8.474 88.97 13.706 133.84 15.559 42.7 1.759 86.33.463 129.65-3.797 41.06-4.075 82.98-10.882 124.43-20.329 39.19-8.937 78.93-20.375 118.13-34.035 169.69-59.087 304.7-150.032 388.07-215.972l.23.092c-83.37 65.94-218.37 156.932-388.15 215.973-39.27 13.66-79.01 25.098-118.2 34.035-41.53 9.446-83.37 16.3-124.51 20.328-43.4 4.26-87.03 5.557-129.72 3.797-44.88-1.852-89.91-7.085-133.85-15.559-50.31-9.77-102.88-23.662-160.9-42.509-51.64-16.763-102.58-35.748-151.89-54.085-13.14-4.863-26.67-9.91-39.97-14.865-134-49.455-273.05-82.888-413.189-99.466-72.714-8.566-146.595-12.641-219.621-12.132-75.126.556-151.107 6.02-225.688 16.207-100.012 13.661-200.101 36.351-297.546 67.376-91.38 29.08-181.0481 65.709-266.5947 108.866-158.2613 79.878-300.5013 181.104-411.4793 292.841z" fill="url(#D)"/><path d="m-431.954 645.046h-.155c113.077-109.746 258.039-209.675 419.1781-289.044 85.9354-42.37 175.9929-78.582 267.6829-107.662 97.134-30.84 196.602-53.808 295.68-68.348 37.796-5.557 76.292-9.909 114.322-12.919 37.485-3.01 75.592-4.816 113.232-5.372 73.726-1.065 148.385 2.547 221.799 10.882 142.245 16.068 282.455 49.64 416.845 99.79 15.17 5.649 30.49 11.438 45.42 17.087 48.68 18.384 99 37.369 150.02 54.225 57.23 18.893 109.18 32.97 158.72 42.972 43.79 8.844 88.74 14.447 133.53 16.624 42.62 2.084 86.25 1.111 129.57-2.871 41.06-3.751 82.98-10.326 124.51-19.541 39.19-8.66 79.01-19.866 118.29-33.295 170-58.114 305.4-148.457 389.15-214.027l.16.092c-83.68 65.57-219.15 155.96-389.16 214.074-39.27 13.429-79.09 24.635-118.36 33.341-41.53 9.168-83.45 15.744-124.51 19.541-43.4 3.982-86.95 4.955-129.65 2.871-44.79-2.176-89.74-7.779-133.6-16.624-49.62-10.048-101.49-24.079-158.81-42.972-51.02-16.856-101.33-35.841-150.02-54.225-14.85-5.603-30.25-11.437-45.41-17.087-134.39-50.103-274.61-83.675-416.772-99.743-73.415-8.289-147.996-11.947-221.722-10.882-37.563.555-75.669 2.361-113.154 5.371-38.03 3.056-76.526 7.409-114.322 12.92-99.078 14.54-198.546 37.508-295.68 68.348-91.613 29.08-181.67 65.338-267.6055 107.662-161.1385 79.369-306.1015 179.297-419.1785 288.997z" fill="url(#E)"/></svg>
