<svg id="visual" viewBox="0 0 900 600" width="900" height="600" xmlns="http://www.w3.org/2000/svg" xmlns:xlink="http://www.w3.org/1999/xlink" version="1.1"><g stroke-width="1" stroke-linejoin="bevel"><path d="M382 325L288 436L368 430Z" fill="#0b2812" stroke="#0b2812"></path><path d="M382 325L269 302L288 436Z" fill="#23843a" stroke="#23843a"></path><path d="M269 302L210 423L288 436Z" fill="#12451f" stroke="#12451f"></path><path d="M269 302L179 332L210 423Z" fill="#1c6e31" stroke="#1c6e31"></path><path d="M168 465L309 523L288 436Z" fill="#175928" stroke="#175928"></path><path d="M288 436L309 523L368 430Z" fill="#175928" stroke="#175928"></path><path d="M309 523L403 521L368 430Z" fill="#0d3116" stroke="#0d3116"></path><path d="M368 430L506 416L382 325Z" fill="#1c6e31" stroke="#1c6e31"></path><path d="M109 374L168 465L210 423Z" fill="#1a632c" stroke="#1a632c"></path><path d="M210 423L168 465L288 436Z" fill="#1f7935" stroke="#1f7935"></path><path d="M282 176L212 219L269 302Z" fill="#268f3e" stroke="#268f3e"></path><path d="M269 302L212 219L179 332Z" fill="#144f24" stroke="#144f24"></path><path d="M403 521L506 416L368 430Z" fill="#144f24" stroke="#144f24"></path><path d="M372 170L282 176L269 302Z" fill="#144f24" stroke="#144f24"></path><path d="M372 170L269 302L382 325Z" fill="#144f24" stroke="#144f24"></path><path d="M506 227L372 170L382 325Z" fill="#268f3e" stroke="#268f3e"></path><path d="M179 332L109 374L210 423Z" fill="#1c6e31" stroke="#1c6e31"></path><path d="M86 307L109 374L179 332Z" fill="#1f7935" stroke="#1f7935"></path><path d="M506 416L534 296L382 325Z" fill="#103b1b" stroke="#103b1b"></path><path d="M211 600L292 600L309 523Z" fill="#268f3e" stroke="#268f3e"></path><path d="M309 523L369 600L403 521Z" fill="#23843a" stroke="#23843a"></path><path d="M534 296L506 227L382 325Z" fill="#103b1b" stroke="#103b1b"></path><path d="M292 600L369 600L309 523Z" fill="#1c6e31" stroke="#1c6e31"></path><path d="M403 521L523 504L506 416Z" fill="#1c6e31" stroke="#1c6e31"></path><path d="M527 600L523 504L403 521Z" fill="#0d3116" stroke="#0d3116"></path><path d="M506 416L567 363L534 296Z" fill="#12451f" stroke="#12451f"></path><path d="M596 526L567 363L506 416Z" fill="#0b2812" stroke="#0b2812"></path><path d="M534 296L603 261L506 227Z" fill="#1f7935" stroke="#1f7935"></path><path d="M212 219L86 307L179 332Z" fill="#1c6e31" stroke="#1c6e31"></path><path d="M109 374L112 502L168 465Z" fill="#0b2812" stroke="#0b2812"></path><path d="M168 465L211 600L309 523Z" fill="#103b1b" stroke="#103b1b"></path><path d="M0 398L112 502L109 374Z" fill="#1a632c" stroke="#1a632c"></path><path d="M282 176L234 136L212 219Z" fill="#1a632c" stroke="#1a632c"></path><path d="M212 219L72 214L86 307Z" fill="#0b2812" stroke="#0b2812"></path><path d="M301 68L234 136L282 176Z" fill="#1a632c" stroke="#1a632c"></path><path d="M112 502L211 600L168 465Z" fill="#103b1b" stroke="#103b1b"></path><path d="M81 128L72 214L212 219Z" fill="#23843a" stroke="#23843a"></path><path d="M0 501L111 600L112 502Z" fill="#144f24" stroke="#144f24"></path><path d="M661 361L603 261L567 363Z" fill="#1c6e31" stroke="#1c6e31"></path><path d="M567 363L603 261L534 296Z" fill="#1f7935" stroke="#1f7935"></path><path d="M377 69L301 68L372 170Z" fill="#144f24" stroke="#144f24"></path><path d="M377 69L372 170L485 71Z" fill="#268f3e" stroke="#268f3e"></path><path d="M372 170L301 68L282 176Z" fill="#0d3116" stroke="#0d3116"></path><path d="M234 136L81 128L212 219Z" fill="#1c6e31" stroke="#1c6e31"></path><path d="M485 71L372 170L506 227Z" fill="#0d3116" stroke="#0d3116"></path><path d="M369 600L527 600L403 521Z" fill="#268f3e" stroke="#268f3e"></path><path d="M523 504L596 526L506 416Z" fill="#0d3116" stroke="#0d3116"></path><path d="M112 502L111 600L211 600Z" fill="#144f24" stroke="#144f24"></path><path d="M0 398L109 374L86 307Z" fill="#144f24" stroke="#144f24"></path><path d="M527 600L596 526L523 504Z" fill="#1c6e31" stroke="#1c6e31"></path><path d="M0 300L0 398L86 307Z" fill="#1f7935" stroke="#1f7935"></path><path d="M0 232L0 300L86 307Z" fill="#144f24" stroke="#144f24"></path><path d="M596 526L661 361L567 363Z" fill="#12451f" stroke="#12451f"></path><path d="M612 170L506 227L603 261Z" fill="#1c6e31" stroke="#1c6e31"></path><path d="M612 170L561 128L506 227Z" fill="#175928" stroke="#175928"></path><path d="M561 128L485 71L506 227Z" fill="#1a632c" stroke="#1a632c"></path><path d="M185 0L81 128L234 136Z" fill="#23843a" stroke="#23843a"></path><path d="M72 214L0 232L86 307Z" fill="#12451f" stroke="#12451f"></path><path d="M0 398L0 501L112 502Z" fill="#144f24" stroke="#144f24"></path><path d="M697 220L612 170L603 261Z" fill="#175928" stroke="#175928"></path><path d="M0 114L0 232L72 214Z" fill="#12451f" stroke="#12451f"></path><path d="M809 387L679 325L661 361Z" fill="#175928" stroke="#175928"></path><path d="M661 361L679 325L603 261Z" fill="#12451f" stroke="#12451f"></path><path d="M527 600L615 600L596 526Z" fill="#12451f" stroke="#12451f"></path><path d="M596 526L720 504L661 361Z" fill="#0d3116" stroke="#0d3116"></path><path d="M377 69L304 0L301 68Z" fill="#144f24" stroke="#144f24"></path><path d="M301 68L185 0L234 136Z" fill="#0b2812" stroke="#0b2812"></path><path d="M400 0L304 0L377 69Z" fill="#0d3116" stroke="#0d3116"></path><path d="M485 71L400 0L377 69Z" fill="#1c6e31" stroke="#1c6e31"></path><path d="M519 0L400 0L485 71Z" fill="#12451f" stroke="#12451f"></path><path d="M304 0L185 0L301 68Z" fill="#0b2812" stroke="#0b2812"></path><path d="M0 501L0 600L111 600Z" fill="#1a632c" stroke="#1a632c"></path><path d="M635 0L519 0L561 128Z" fill="#0d3116" stroke="#0d3116"></path><path d="M561 128L519 0L485 71Z" fill="#0d3116" stroke="#0d3116"></path><path d="M679 325L697 220L603 261Z" fill="#175928" stroke="#175928"></path><path d="M81 128L0 114L72 214Z" fill="#144f24" stroke="#144f24"></path><path d="M0 0L0 114L81 128Z" fill="#1c6e31" stroke="#1c6e31"></path><path d="M709 600L720 504L596 526Z" fill="#23843a" stroke="#23843a"></path><path d="M679 325L821 328L697 220Z" fill="#23843a" stroke="#23843a"></path><path d="M674 101L561 128L612 170Z" fill="#1f7935" stroke="#1f7935"></path><path d="M185 0L127 0L81 128Z" fill="#1c6e31" stroke="#1c6e31"></path><path d="M697 220L674 101L612 170Z" fill="#1f7935" stroke="#1f7935"></path><path d="M615 600L709 600L596 526Z" fill="#12451f" stroke="#12451f"></path><path d="M674 101L635 0L561 128Z" fill="#268f3e" stroke="#268f3e"></path><path d="M826 479L809 387L720 504Z" fill="#1c6e31" stroke="#1c6e31"></path><path d="M720 504L809 387L661 361Z" fill="#1f7935" stroke="#1f7935"></path><path d="M697 220L815 179L674 101Z" fill="#0b2812" stroke="#0b2812"></path><path d="M674 101L699 0L635 0Z" fill="#1a632c" stroke="#1a632c"></path><path d="M127 0L0 0L81 128Z" fill="#0b2812" stroke="#0b2812"></path><path d="M809 387L821 328L679 325Z" fill="#103b1b" stroke="#103b1b"></path><path d="M812 600L826 479L720 504Z" fill="#268f3e" stroke="#268f3e"></path><path d="M809 387L900 396L821 328Z" fill="#0d3116" stroke="#0d3116"></path><path d="M821 328L815 179L697 220Z" fill="#103b1b" stroke="#103b1b"></path><path d="M837 90L699 0L674 101Z" fill="#268f3e" stroke="#268f3e"></path><path d="M709 600L812 600L720 504Z" fill="#1f7935" stroke="#1f7935"></path><path d="M826 479L900 396L809 387Z" fill="#1c6e31" stroke="#1c6e31"></path><path d="M821 328L900 290L815 179Z" fill="#175928" stroke="#175928"></path><path d="M900 481L900 396L826 479Z" fill="#0b2812" stroke="#0b2812"></path><path d="M900 396L900 290L821 328Z" fill="#175928" stroke="#175928"></path><path d="M815 179L837 90L674 101Z" fill="#1a632c" stroke="#1a632c"></path><path d="M900 106L837 90L815 179Z" fill="#144f24" stroke="#144f24"></path><path d="M900 600L900 481L826 479Z" fill="#103b1b" stroke="#103b1b"></path><path d="M900 290L900 196L815 179Z" fill="#12451f" stroke="#12451f"></path><path d="M812 600L900 600L826 479Z" fill="#268f3e" stroke="#268f3e"></path><path d="M900 0L828 0L837 90Z" fill="#23843a" stroke="#23843a"></path><path d="M837 90L828 0L699 0Z" fill="#23843a" stroke="#23843a"></path><path d="M900 196L900 106L815 179Z" fill="#0b2812" stroke="#0b2812"></path><path d="M900 106L900 0L837 90Z" fill="#23843a" stroke="#23843a"></path></g></svg>